<svg width="24" height="24" viewBox="0 0 24 24" fill="none" xmlns="http://www.w3.org/2000/svg">
 <defs><linearGradient id="g" x1="7" y1="3" x2="17" y2="22" gradientUnits="userSpaceOnUse"><stop stop-color="#FFCE6B"/><stop offset=".46" stop-color="#FF764B"/><stop offset="1" stop-color="#E94366"/></linearGradient></defs>
 <path d="M12.4 21c3.7 0 6.6-2.5 6.6-6.4 0-3.1-1.7-5.1-4.3-7.4-.6-.5-1.5-.1-1.4.7.1 1.2-.2 2.1-.9 2.7-.9-2.9-2.6-4.8-4.2-6.1-.6-.5-1.5 0-1.4.8.2 2.3-.7 3.7-1.4 5.1-.6 1.2-1 2.4-1 4.2C5 18.5 8.2 21 12.4 21Z" fill="url(#g)"/>
 <path d="M12.2 19c1.7 0 3.1-1.1 3.1-3 0-1.6-.9-2.8-2-3.7-.3-.3-.8 0-.8.4 0 .8-.3 1.4-.8 1.8-.3-1.1-.9-2-1.7-2.8-.3-.3-.8-.1-.8.3.1 1.4-.8 2.2-.8 3.8 0 2 1.6 3.2 3.8 3.2Z" fill="#FFE59B"/>
</svg>
