<svg xmlns="http://www.w3.org/2000/svg" viewBox="0 0 512 512" role="img" aria-labelledby="title desc">
  <title id="title">Haru Fairy logo</title>
  <desc id="desc">A glowing purple butterfly on a night sky background.</desc>
  <defs>
    <radialGradient id="bg" cx="50%" cy="46%" r="66%">
      <stop offset="0%" stop-color="#3c2774"/>
      <stop offset="58%" stop-color="#18112f"/>
      <stop offset="100%" stop-color="#070514"/>
    </radialGradient>
    <linearGradient id="wingA" x1="18%" y1="24%" x2="78%" y2="88%">
      <stop offset="0%" stop-color="#f8e9ff"/>
      <stop offset="38%" stop-color="#9f7cff"/>
      <stop offset="100%" stop-color="#6e4dff"/>
    </linearGradient>
    <linearGradient id="wingB" x1="26%" y1="12%" x2="88%" y2="88%">
      <stop offset="0%" stop-color="#fff2de"/>
      <stop offset="45%" stop-color="#b08cff"/>
      <stop offset="100%" stop-color="#6242d9"/>
    </linearGradient>
    <filter id="glow" x="-40%" y="-40%" width="180%" height="180%">
      <feGaussianBlur stdDeviation="10" result="blur"/>
      <feColorMatrix in="blur" type="matrix" values="0.85 0 0 0 0.62 0 0.62 0 0 0.48 0 0 1 0 1 0 0 0 0.8 0"/>
      <feMerge>
        <feMergeNode/>
        <feMergeNode in="SourceGraphic"/>
      </feMerge>
    </filter>
  </defs>
  <rect width="512" height="512" rx="104" fill="url(#bg)"/>
  <g opacity=".76">
    <circle cx="106" cy="330" r="4" fill="#d7c7ff"/>
    <circle cx="166" cy="128" r="5" fill="#ffe3ff"/>
    <circle cx="370" cy="145" r="3" fill="#c8b7ff"/>
    <circle cx="421" cy="304" r="5" fill="#ffe0eb"/>
    <circle cx="134" cy="405" r="3" fill="#b999ff"/>
    <path d="M92 386h20M102 376v20M410 174h16M418 166v16" stroke="#d6c4ff" stroke-width="3" stroke-linecap="round"/>
  </g>
  <g filter="url(#glow)">
    <path d="M244 268C185 210 181 124 238 80c42-32 96-34 119-8 29 33 8 92-32 139-28 32-55 52-81 57Z" fill="url(#wingA)" opacity=".9"/>
    <path d="M265 274c72-22 137 12 143 76 4 43-21 82-55 89-42 8-79-36-100-88-14-35-13-61 12-77Z" fill="url(#wingB)" opacity=".92"/>
    <path d="M243 269c-41 0-91 18-107 57-15 37 4 78 34 84 39 8 73-34 91-83 12-31 12-51-18-58Z" fill="#8f72ff" opacity=".72"/>
    <path d="M221 284c-18 31-26 72-6 91 15 14 39 4 49-21 11-27 5-65-20-82-8-5-17 0-23 12Z" fill="#ffe6ca"/>
    <circle cx="283" cy="193" r="21" fill="#ffe9ca"/>
    <circle cx="338" cy="324" r="14" fill="#ead8ff"/>
    <path d="M199 275c-26-34-56-51-91-53M195 286c-30-14-58-13-89 5" fill="none" stroke="#ffe4bd" stroke-width="7" stroke-linecap="round"/>
    <circle cx="106" cy="222" r="8" fill="#ffe8c9"/>
    <circle cx="106" cy="291" r="8" fill="#ffe8c9"/>
  </g>
</svg>
