<svg width="72" height="72" viewBox="0 0 72 72" fill="none" xmlns="http://www.w3.org/2000/svg">
  <defs>
    <linearGradient id="pencilBody" x1="18" y1="54" x2="54" y2="18" gradientUnits="userSpaceOnUse">
      <stop stop-color="#F6C15B"/>
      <stop offset="0.45" stop-color="#FFD978"/>
      <stop offset="1" stop-color="#F0B43E"/>
    </linearGradient>
    <linearGradient id="pencilWood" x1="44" y1="28" x2="56" y2="16" gradientUnits="userSpaceOnUse">
      <stop stop-color="#F3D6A8"/>
      <stop offset="1" stop-color="#E8C28A"/>
    </linearGradient>
    <filter id="pencilGlow" x="-20%" y="-20%" width="140%" height="140%">
      <feDropShadow dx="0" dy="4" stdDeviation="4" flood-color="#F6C15B" flood-opacity="0.45"/>
    </filter>
  </defs>
  <g filter="url(#pencilGlow)">
    <path d="M18.8 48.2L23.9 53.3L14.5 57.5L18.8 48.2Z" fill="#4A3A2A"/>
    <path d="M23.2 28.6C25.1 26.7 28.2 26.7 30.1 28.6L43.5 42C45.4 43.9 45.4 47 43.5 48.9L38.4 54C36.5 55.9 33.4 55.9 31.5 54L18.1 40.6C16.2 38.7 16.2 35.6 18.1 33.7L23.2 28.6Z" fill="url(#pencilBody)"/>
    <path d="M24.8 30.2L28.5 33.9" stroke="#FFE9B0" stroke-width="2.2" stroke-linecap="round" opacity="0.7"/>
    <path d="M41.2 22.4L49.7 30.9L45.1 35.5L36.6 27L41.2 22.4Z" fill="url(#pencilWood)"/>
    <path d="M49.7 30.9L55.2 25.4C56.6 24 56.6 21.7 55.2 20.3L51.8 16.9C50.4 15.5 48.1 15.5 46.7 16.9L41.2 22.4L49.7 30.9Z" fill="#FFB457"/>
    <path d="M51.2 20.8L53.4 23" stroke="#8B5A2B" stroke-width="1.6" stroke-linecap="round"/>
    <rect x="29.2" y="47.8" width="8.2" height="3.2" rx="1.2" transform="rotate(-45 29.2 47.8)" fill="#E8A94A"/>
  </g>
</svg>
